<mxfile host="65bd71144e">
    <diagram id="lFYVtKr5zfp-X30zL4s7" name="ページ1">
        <mxGraphModel dx="543" dy="245" grid="1" gridSize="10" guides="1" tooltips="1" connect="1" arrows="1" fold="1" page="1" pageScale="1" pageWidth="827" pageHeight="1169" math="0" shadow="0">
            <root>
                <mxCell id="0"/>
                <mxCell id="1" parent="0"/>
                <mxCell id="2" value="" style="shape=image;verticalLabelPosition=bottom;labelBackgroundColor=default;verticalAlign=top;aspect=fixed;imageAspect=0;image=data:image/png,iVBORw0KGgoAAAANSUhEUgAAAeAAAAC/CAYAAAAmew8DAAAACXBIWXMAAAsTAAALEwEAmpwYAAAgAElEQVR4nO3dCXxU5bk/8Nfa6q31aldvW80CFJcryUwmmRBIxKlLq/5t1daq2IZVQLSLS++1KlaMVZBF/Fe816pVu9xbta1lKUsoCGgStiQoAoICCdJWQtgCCUsSeO/7zElwmMxyluc95wz8vp/P84kIOe/7npk5vznrKwQAAAAAAAAAAAAAAAAAAAAAAAAAAAAAAAAAAAAAAAAAAAAAAAAAAAAAAAAAAAAAAAAAAAAAAAAAAAAAAAAAAAAAAAAAAAAAAAAAAAAAAAAAAAAAAAAAAAAAAAAAAAAAAAAAAAAAAAAAAAAAAAAAAAAAAAAAAAAAAAAAAAAAAAAAAAAAAAAAAAAAAAAAAAAAAAAAAAAAAAAAAAAAAAAAAAAAAAAAAAAAAAAAAABksJKtUgzaJC8o2yKvL2uUNw/aLK8r3Sz7FG6TfI1IKQbUP/HJwtVT8sKrp36vsH7qzUUrJ1/Vv3baOeENj/G1AwAA4GsqECMN8rwBa+UrJfXtHcXVe2S4aq+qPbJYVbh6r1T/v1X9/XOlH8kv2W1m7Ft1Ivjm+GDB38YtCsy6T+bNGfdxzaWfD8nAoormgponHimsm3oK5xABAAB8JTivSQxc2f5kyZsUtntlsQrbYz+r4/6sfpbUtcuy9fKegXus7REP2PikyF/8yB/7zb1f5qugjdbcBKXCmH4GF1V0FNZPuUHTsEGvGlV7VDXH1K6Yak5R3f/mNNd7DZngO6oOidTvoWTvO6rDqm5yvdcA8a7YJEXJ6s4lxcv2SdrrPS50kxTtGdNe8YDa9lcv32QuhPutnHRmYNH4D2lPN2nw9gji6N6wDC97/B7x9POa1wQwa1QlHRaOgEAiNwvn760fuN5rgFjXblbhW9f+SrjaOMwcLRMBHA1hOkStqnTlof9Ph69TCdc9JoKLfrHRVOjGVZ6qwPwHZWj5hFtdWi3AY7NwvpEESOR7wvl7C9sT8FbZenlTd5CaDd7jQ3ivLFm6Rw58W/ZP2oh6qxcsmDDN2OsdZzmAY/eE+6+Z8gUXVw84gwAGXRDAkNnOf6eT9n4PhS3s9Sar/nXtG2hvOpHi5dO/EJhdYS944/aEC6on/NHl1QT2IYBBFwQwZLZLPpDfKF6W4GIrG3vB9POSTfKCRO2Eayc/lGd3zzeuAovGy/CK6W6vKrAHAQy6IIAhsw1cJ3+X8GpnGwFMh7DLNsuHE7UTqnliUx5D+HZXYd3ka9xeV2ALAhh0QQBD5rp2S/Tiq/Vmr3pOW1UqgLfIJfHt9KubKIILK+yf+01QoZWTH/VglYF1CGDQBQEMmStvnRTF1bt32b34KmEAb5bvxrdT9M7kz3AFr3EeeJwM1099yYt1BpYhgEEXBDBkrtBuKfpXt+xkCd9oRQN4TXw7+TWPn8UawHOiAfyiF+sMLEMAgy4IYMhc125eL4pXta9DAINGCGDQBQEMmW3gOvkCx0VYCGBIAgEMuiCAIbMN2CTLwjVM54ARwNATAhh0QQBDZqMHZ/SvPdQcRgCDHghg0AUBDJnvknflNdEZkBxfDY0Ahh4QwKALAhhOAFKKgSs7no2eB3Z0LhgBDD0ggEEXBDCcGEr/QdMRdvxvcU0LAhg4IYBBFwQwnDiCS1vFwPXyrpK6dnncOWHTe8UIYOgBAQy6IIDhxHPFP+QZA9bJSSV1HQeKl7V8HMZVe9KWCuCG+OUhgE9qCGDQBQEMJy7aI75sizy9dKMsKmuQV5ZtSVtXXbpblsUvBwF8UkMAgy4IYIB0EMAnNQQw6IIABkgHAXxSQwCDLghggHQQwCc1BDDoggAGSAcBfFJDAIMuCGBwX6RJfqrsfXlD2Wb5iKpJbtWgzfKxsgZ50yUb5Jn08A6z/BDAV1Q9IorqJg8I1069S9XkUO3USaHVU/6jYOXU/gWNz1h+DXzsU6oGqhqp6jFVv1H1SkzRnyepulvVd1X1U/UJjf3JxAAOqRqq6nFVvxPHr7tHVA1WdZEH/fLS+apuVPWAquni+PfUC8JYLxRm+S72CQEMLpkkxSVbZcHA9bKmuO6wLK7afezeW77pBJMX3YoU7rofuGTpHllae3j1oLdlxEwQexnA4bXT/6WgesK0/DcqZB797txx0cqf83EFF1XIUNWE6aEN0z7t+HXyxtWqXlN1UDjbGL2h6j5VFzP2LRMCOEvVg6q22OjbKlU/VHV2mjZKVE1UNd5mTVaVa2dwNtF7oELVRmHvNfu7qqdVDdDYR78FML2HxjMUfZmZqup6xr6BXddulKKkvn16ybI90vnjIpnCWAU/PT964IrDv//GhtTbSE8CWH0xCC159MrAooqD+RS46ZY75yEZWFjREV4+8Srx9POcL58u/6bq16o6hfONUKI6IIy9v6DDfvo5gC9TVcvQv+6aqapXkrZ+xrD8bzKNO5nThPEF7COGvsZWizAC5fPM/fVTAP+BoS+xdUTV55j6BnYFV1H4diwNu7i3azWM+9cdfvvSxuTbSS8COFz16E2BWfdJU+HbvVz1bwPz1bKrJ9zG/kLyOUPV74We0E1W24RxSNsOPwZwoap1DP1KVn8SxqmAWHczLDfCtwqO80lVzzD0z0zRkZpzmPrtlwC+h6Ef8ZXsixy45Xa1Fxdedfg3bh5qthXC9BSs+s6Fty9dkHAcbgdw4erJl6g93+i/s9WG+t3i1U9GdL2uDtwp3NlIJqvDqoZb7LOfAvhUwb+nkqyOiuP3WP0awPczjtlK/ZKh734I4GsZ+hBfOg/bg1mla+Sgojf9Hb7Rqtori5btl6Xr5U2JxuFmAH997XShwnc3HVJ2svzAworWsg+e0PsCW/MX4c2GMlG9q6qvyX77JYDpnOYOhr5YrTu72v8hw7IiTOuC0EVVGzxYH7HVrGqQgzF4HcB9GdqPL6tfcEGHC97pEAPqOteGqznm6dUfwHQouqT20I7g5p7bSzcDuKBmwijbe77HtfGQDFZNuEv7C50e7bXpPFzqpMaa6L8fAvhbDH1wUnS1+TCG5UQY1gW5zeP1EV+P2hyHlwFMdw7sY2g/tibb7AtwG9gg+xbX7DMmOfA6YC1U6QeyNH4sbgVwQdUzIrj40Q+c7P0eKwrgJRUNfeb8lzsveHKNwvsNZLJ6wET/vQ7gO5jG6qTogpqXGJYTcbguyHQfrI9EtdDGWLwM4DUMbcfWKzb7ATqUbZH3HptlyAfBaq6isyFNih+LWwEcXvHEqflzH5RcAZw//yEZqHks3e0lOs0W3m8YU9VnTIzBywAeoWncduoowzIiDtYF+bMP1kOqolCzck+6VwHMfR1BnY0+gE4qgF/LrPDda0xHuEXWxI/FrQAurn8qmGfhque0Aax+hmqf7DG7k0tuF95vEFNVpclxeBXApZrG7WVFbK4LMssH/TdT6y2MyYsAfpB5vLuFcRU6+Inak5ybkQG8Wb4bPxYVwGfHhpquAC6sn3o9x/nf2CpYNeVad17x45wlvN8QpiuzX0y8CGC6R7rDhXXgdkVsrAvyrA/6bqWWmhyX2wH8beZx0l0FWRbaB7dEA9jrQLVc0QBeEz+WYNWk0/PmMQaw2sstrJ36Qnw7KoCvy2cO4MLayde484ofh54E4vVGMFU1WxiLFwG8WtO4va6IjXUxygf9tlNmng/rZgD30zDGHtfLgE+UbpLPeR+o1veASzfLWfFj+VbjM3RrEG8Ar5r8s/h2tATwqilmb7fhxPUBbxPGk56Wq1omjNtOnD6ukurnFsbidgBz3G/r14pYXBcX+qDPTuq6NONzK4Dp4Td7mcf2AxPtglfKGuQNngeqxb3f6B5wo/xxovEU1Eyo5grg/L+Ok8WrpvaPb4M1gOkq6PkqgJdP1P9iH8/puV+64nacMB4rmEquMO45pAtz9lts43QL43EzgD/D0JafK2JhXZB/+qDPTuuMFONzK4DfZx7TIybaBC+V/l1+umRVuw+C1XwAF9W0SrXnnvD5paH6KcN5LpAaJ9Xe9NFEMxhx7wEXLK2oFFNcvw1pibD/wW4Q6ScFSIZm9/lvYZyXStXGYovLdTOA/4ehLT9XxMK6eMAH/eWoOSnG6EYA/4l5PH9I0x74xYB18rf0II6w3x/EUW1MzhCu75yZ7HGUZW8/I+jpUo5DWAVs6K2JCb9BcgZwcP44WbT8FwGtL3Bi6QIwVXE9P5Y2bMlmBrrK4rLcCuAvM7STrmjiCzqMT1f609W6bS60GVsRk+vCjSMB77u0HhpF8r1g3QH8MPNYVqdoC/zm8o/kaQPqOjrDPgjYdFVS1y4jW+RZqcajgvMm4ypl+yEZXFSxPfje9ITL5whgegJWdIrCNyr+LKa4Pk/wvwr7H+61GvpDVzrHPnDgsI1luBXA/8vQTqKib5TfTtM2nQ55Tjj78mSmIibXxW81tP2mMOZBTuVKVa8ztUePDf1OmvZ0BvBgpnHEjgcyTdkH8rKS2kOeB2zSqtobnZaw7B2Z7sPZdTHWo7+lAM6zeD44OlPRwgoZqp/y78mW7ziA5xhV8EbFtvC7007hfSVNocPAdj/gPa4+Z3SDMB4k8bSN33UjgE9jaCO+6CEo/2ZjvHQOn+NCt0QVMdH+2cxt0i1B51lcB/RF8mWb7dH77B6T7egKYCefw0SF240yWekm+e2SusPGrEMezwV83GFnCt+6Q7JsrRxJ8++akbfwSRFYPP7VfnPvt3RVNF1FXbzqyZSzhDgL4HFGyC+uaAjWTvZqHs4i4eyDrrPfn1Z1po3fcyOAuZ945XQidHqwgo7JMyIm2n6Ysb20X6rTCAtrRwXoGgQrF/jpCGD68sB9SH2ghTGBH13SKM+jeXfDb+2JBl/4WBDvSVrhmEr0Z7P/5rjJIGLaLqlr3/L1Bmn5Np2xVXUiWPP4LSpUO9OFcN7sB9We7yOLg6smpb24qLD+yevy5ny8J5to7zY/yd8HZt8nCxb8/Jmyak+fh07nnJ180P8u/DeJtxsB/A5DG1R0mPDLzoZ7nJFM/equiIk22xnaOST4riegeZG3pWmPLrT6vI1l6whgjvdrbDn9Mgd+ca3ayyzbLCNl6+VstUd8qLhGBeNbFI4tSat/mj+b/Td0j2+4apcK3cNHBq6XcwdtkVcXrTOzbUwuvGG6KFw1+Yehtx5fE4zeJ9x9fngcnes9EKqe8Fpo5cRAWcs8c8urnXQLPfAjWnPosHVMzen6/9Hqamf2OBW647eH35w4ObTssXPM7sVrxDW9GV0Ba2VPQic3AphjndGTs77icKyJDGHqn5kADjG1c5HDMcejvcp/JGiHrlsIO1gudwDPY1hebOF2oxPV+e9Icck2eWbZ+/K8gRtktu4q2ybPu7RRnnHZR3pCii6sCq+a9rmC+mnnFVQ/cTrNbGRV8canTgvXTjlfVXaqKlLVv3baOQXLnzpFSNcvtEqFrvbk3ADQLRRfd3UEPekO4KsZlk91JcNYkxnH1MdImnaeZGjjRsejTax3TButTO1wBHD3HOa/YFhWbL3KMD4AcJmuWzoWqxqjKtu9oUTpDmCO6fVeZhhnOksZ+hlJ00ayW8fM1l8ZxpnKf6rq8QQ7BzgCmL7AfYdhObG1jHGMAOCiRUJPAMcWTSROt6rQ7TXpnpjllO4A5jj/m/L2OSY/YehnJMXyP8GwfL9dP5AORwDTFzjOiTvo6WNWplQEAB8ZKvQHcHytEsYzlP9Vw3h0B3CLw2W7NRE6xzOqIymWn+dw2Ut4hukqjgDmLHpQi9VbtgDAZ7zciKwTxjOiue6D1hnAHPf/FjGNMx3dAez0iuurmcbpJr8FcIHe4YLn5Fd+JNpzRgY7c0c92tFr5LwjvUYtTFXtvUYuop8yZ1TdtuvNf8Zk7ghxpNfoa9TvT2/vYyxLtVmp/jyl/WtjSmXfu5yPRb1l5ZuFp8uawpvl8tBLcnnhIlUL01aN+nfLVNWY/PfJfndF+HW5oug+ubI4Sx711WfnIeH9xoTqKeF8r1hnAHM8ftItugP4CYfLTjXpgV/5KYC/q3ms4CUpRog9ucOub8ou/0dD9mDZmH2rbLBQH371Vrmt9D/SttP+pVtEa6+RDzfllLfT7zVmdVV2V2UNjpb6+5YDvYf9ZMcge9dUyLcKT2mbF3px54ygbJ6VL3e6Xnly58w82axq51/yZeu8YK2sDnnx7Odk/DSTzRQH49AZwE6fWNToYFxW6Q7g3zlY7m6uQbrMLwGM241OZK1fHXLK9twh87fkxAShxfrw3FvktrKfpmxH5o49tylnyC4j3AenXF5DlhHGO7K//57MudPSxRtqb3fQgcqgCsB8FYBGuR/ARjV3Ff13W2VAyqWhiXJuH0evF5Mc4f2GJbbo6uyIjXHoDOBvOFyuuRvMeegO4EoHy13FNUiX+SGAZ2ofJXjnaJ/Roil36Gq7wWs2gDv7jOjVlFt+IF3w9gjibNobHrrzUNbwL5kZj6wuvLxtfsCzwE0dxnly16yAPLig4JW26hDba+iA0wtrdNQDFsegM4C/6XC5L1gcixO6A3i+g+Xqvv1IFz8EMH0xdfvWPnDDRvUFf0fukD82dB321RXAHVljxI6c8u0N8YebTZXRr6bcIRuPXpx68hK5rPCLtJfpddCmCmCqnTPypXyzIPXhAvfQYVa6bcjrDU1s/cJC/3UG8FUOl+vm3oufA7iKa5Au80MAU+3RPVDwwL7eI67amvN9R8FrJoD35wx/vvucsp1lU3BvVdWaOzLpSWZZXSDaKgtWRM+9+iBs0x2Wjh6OfrvET/dFPi+839DE1v0m+60zgC92uNx6k2PgoDuAnUwDuI1rkC7zSwBTvad5rOAmWTRCbM8q38gRvqkCuL3X6FObcoYe25O1FcDREB6s9oLLD8ncxCEvl4ULjXOt/g/gaM3MkweWFL6cauvvAQocesqO1xub7gqa6LPOAM7SuGxuugPYyRPBjnIN0mV+CmCqTD2UD/Hae9+eu8Xy4WDrAdzRa9QdsYeSbVeWcT64I+e2byYaj1wUetHzULV6OLoyePjIyjztr7UN56v6jfB+g9Nooq86A/hfGJZ9rokxcNAdwD92uOyLmcbpJo4A3sqwjNj6pdYRgzuO9Bo51uoFUXYCeF/20AVcbVB15o56Lr4Nut93/9yCNq9D1U7JVQXcM8Nwo0kE6BaUvcKbEP5/afqn+0lYBx0u++E0y+eiO4AvdbhsX81KYhJHANN0gdyPf/2RzkGDCzpyRz1r95ys2QA++u8Voil7SCNXG9E94F6jetzSIFcOEM2v+/fiq6Q1UwXw8pDTScnddI4wnog0SxgXhrgRwNVp+qQ7gN9zuOxdaZbP5S6H/UwXwGcyLD/TcATwDV3L2sWwrNi6RtegwQVHeo2erXsPuO2iUaIha/B+x4efYwJY9XtN/FhkTf5nm2dkyLnfHgFceIdrLzq/LwhjD5kepLFe6AvhVHMP6w7glxiWf1uaNjg8yNDPSJo2nH7pGscwzlTomoGvMi6PI4C7v2BfwLCs+LqAcazgJhVkL3IGcPQ2pkHHB7C8aLTYHA1gvj3ghAFc3f/U6BOnvA5Ui0UXjckVoaGuvejuKFY1TVWz4NvQDEjRnu4AvplpDJ9P044TtOxOhj5G0rTzZ4Y2OAMyXvfpArqiP9WXNrM4AvjWmOXdyLC82KLX/GyGcYLbVJD9lK4s5joMvT2n/ICMPmP/Y64F8L4y0TYv0OnNIyedVJ6U1aFi1150931d0O3mzjc0P0nRhu4APpVh+VSr07TjxPtMfYykaec6hjbedzzaxOK/HNCV107vtecOYDKNYZmxRe//Ux2OE9zW/rXbC4xQcxqKxs+9ucNmxLfhVgBH23qjYF73YV3vg9XkHvBfA2oPeMAn9b/anvu9cLaRmZxi2boDmGxjaIOq0kRbVtC8sLVMfTMTwIKpnbccjDmRVLdI0ZGYG20uV0cAkyUMy42txTbHB16R54wQaq91p/NQvFVuVcHYnjvqih5tuBnA1UXX7JydWQHctiC4QE7V/1onQcHv5uQQTp629WqK5boRwD9jaKO76D7r00y0mQ69djsZ+2U2gF9lamut4Dl8Ostke3SNQonFZesKYLKbYdmx5da808ClpdfwOx0/IEP9/o6c8oZE0we6GsD1/URbZXBrppwLpqu2O5b276f9RU6u+75Oe9NNWVct7G9cUt3C4kYAf5Ghjdg6oOpbJtpN5FPC2UMxUlXERPv9GNvrUDXE1loQYpCwN6PXQmF+UnudAUwzshxlWH5sPWRyXOAHLV/5oWjKLt9oXIxlPYijh59zyuXu3NEDEy3fzQCOtrcoPDAzbkfKk21zg3+QZjb9+vxdfPzBpRC7UnN7jcL+huXhFMt1I4DJEoZ24oveyzebbJ/uF/+14N9ox1bEZF/qmdv9QJgPYnqfchx2/5WJtnQGMOE4px5f3zMxLvALmXvnZ5tyhuyPhrCFCRmicwDn3CJ35g7/SbItmOsBrDpyYG7hvbtnBaQxH6/XQRtXXf1Re+prDy61ejSM1aUi+Ybwag3tFSdpz2zdlGLZbgVwIUM7qeptVc+qukfVvcK4gIhu71qqud3YiphcFwGNfaDPNz1s5z+71gGtD7pwSdcjUn+eYpy6A5g8pGFMCXeIwKeO5t5+7vbcIdvMXRU9ODo5QlNWuTyYO+zuv4nRSZfrdgCTGQtVCC8I39M8JxB93rLXIXxsPuKun20LgovkoqDXF17RRTCpPsB0vnaiql4MbdG9iofStJeuslIs360AJn56TraOilhYF3/1QX85anuKMboRwMTJXMuJio6S6LzdC7jJi+8R+3OHP9OUU26EMIVxVyB3F4XgFvX3H+WOeO9o3zFpJ7T1IoCj7U4VorOqqLDtb/mNzbP6GVMAxh0CTl6JDxlbr64AVrVrtjH70ZEloXvl1j48L5h9dM+olQ8zXUX6W2HshX7ZQjv0DGSOc5X70rTjZgBfyNCWnytiYV2c4YP+clSqvUW3Apg0Mo+Lvlh8ymTb4Bcya/RpLX2G3rO9d3n1lpxbdm3NuXXv1qzBLU3Z5Rv2Zw//VfvXxhRJs8vyKICPtV81VsjlhQPk4sLnDiwIbto1O69l5+zA3p2z++01fiaqvL07Zua3qL3VFvpJf/7471L93sd/Z/x+3r5dfwn8s21OcIFcVFgu1xTZfEXY0bkvpx9uOn9Me9GvqXpaGA+Ip6JDh0uEcZER14bk5TTjcTOAyUuMY/NbRSyui6E+6LOTejbN+NwMYPpyy31+/x2TbYPfSPG8+OdXxwh5zhAhvzRE7LjU7PSsMcvwOIBjtVYXCPlGsKsCKSqYoFL9++TVueAK4fGFVvHohv0jwvsNn5VKd8jA7QCm0wfct5D4pSIW1wX5kw/6bac+MDE2NwOYlGoY5ywL7cOJxE8BDFG3C+83fFaqzsSY3A5gUubR+tBdERvrgmzwQd+tFN3+ZOYcqdsBTO7XMN4nLPYBTgQIYN+h80Jeb/ysVF8TY/IigAnH7EN+q4jNdUHzJmfSUQGzD6DxIoDJaxrGfKeNfkAmQwD7yuXC+w2flXrM5Li8CmDyHNNY/VIRB+vic6o+8sEY0lWphTF5FcBkLUPb8ZVubm04kbg2GYN6a7WsvFDIugtM1PlCLgj57dysGzLpFpqlFsblZQATv5wDXc2wjIjDdUFPDPvQB+siUdHMQVbCl3gZwJ8Veq7X8Pw2DHCJawFcVXzOzteDsnlmQG5PU00z82XTjGDnvjmh+iMLQw/J+tKTZTqvXGFcFen1hjBdWT3C4XUAk2cY+uCkXlY1nGE5EYZ1Qdx8eIiZosk07NwX62UAE6cPsElUrQJTGJ4cXAvgZflnN8+w9jSqY4+ErAxI+Wbhc/LdAq8fjuGWoaoOC+83ionKyp5vNz8EMLmboR92qqqr/bEMy4owrQui42IiO5VqIo90vA5gMoahD/FFU0J+wmG/wO9cDOCzTAdwj0A2npbVNj+/SVaHzD6kPdPRh+8R4f3GMbbsXqnplwAmYVU7GPpjtv4npm2Oi8IijOuC0EV06zWOP1XRnt61DvvvhwAmLzP0I76WMPQL/CwjAjjmiVVtlflH5criz3uxrjxEG26u+W7tFN3C4mRaRD8FcLcpDH1KVe2qro9rk2MPPMK3Co5DE064+cVkPFO//RLARMdFWS8x9Q38KJMC2Hhuc55srQyuldUFXqwur10sjNl2WoQ7G0kK3qsY+t3A0JdTGPoRj64K/jVD32KLgndykvZ+yrD8y3mGnhSF0XsM/UxUNDfyA8z9vZmhXz9g6gs9+nMvQ3/iaxxT/8BvMi2Au0suDtzuxfryka8JYxYa7otpaFIGumApj7GvNDXdQVX7bVRr18/TGfsT70xhrMtGYX+9UWgNS9POUGF8GVlns+jqZbem6OqtaqownjPu5P1EVzb/XhgPRtHhxq527Ly39nf97mDG/vR30JdE1X0tCG5POhFlagDvrwzuk1vtzpd+QjpLGFMY/kjVf6mar+pdYTwTepfouWGkhzJsEsZ5JnpG9HdVfcXtTvsQhTEd1qTnZ9NtYbT+Yp+bTRvFrcL44kN7urRhPNEvlqH3Fn3YJgnjfUWnFOIf6kF7frRe6Pnj/y2MUMv2orMAGSMzAzgveihaVofyvVhnAAAAjmVmABshLGvCd3mxzgAAABzL6ABeEX7Oi3UGAADgWKsK4IaswftcCOCzm2cyBjAdgl4eftGLdQYAAOCY7Hu3aMou38obwKNW9GhnwQDR/JcA7x7w8vAvvVhnAAAALPblDp3bmMUXwB25o34V3wZNrNA2r2DvTqa94GZjD3iEF+sLAACARWfv0WOMAB7MEsBHc8dclqido4sKX+A6DN30ekDKmqIvur2uAAAA2MgLxoimnKEOg9cI36ac8gOyT+JnZMi6UGDXrDzne7+qDswtWHMSTlcIAAAnmv05w55ysgdM4btV7UW35oz8UbI2tr9eJg4uCCyJTq7gKID7SbkwpNNQ5tcAAAH8SURBVOvJOgAAAO45nPNjtRdc/mFDNIStB3FD1mDZnD303QNFqU/L0kQKrZUBaTeE6RB2a2X+87LqDpfWDAAAgGYyd+y5TTlDbdwTHD303NTZe+xZptpZWVTW1hXCzab2eI0nX9F/t1UG62VdX92rAgAAwF0Hs4Z9gW5Loj3a9FdGG/9G/fuVh8694zNW2pErigsPVgZau8/pJjvX29wVwHTbUdvf8l+Vyy7SNXQAAABvycC9Yl+vYfc25QzZFw3haBgb1ZB1a1cNltuzy7e3ZI+4Ld1h56TtrAwLuaRgOu0NN0f3hrv2dOlK6ZnG4ebdqg5UBt87ujh4uaweyzxSAAAAH5J9vy86e48a1Nln1IT2PqNnqJ8zO/qMev1Ir1HjO3rfFqKgZmnnnf6nyeWFV8nl4afVzxlyReFMVa/KFaGfyuVFF3auu5ClHQAAAAAAAAAAAAAAAAAAAAAAAAAAAAAAAAAAAAAAAAAAAAAAAAAAAAAAAAAAAAAAAAAAAAAAAAAAAAAAAAAAAAAAAAAAAAAAAAAAAAAAAAAAAAAAAAAAAAAAAAAAAAAAAAAAAAAAAAAAAAAAAAAAAAAAAAAAAAAAAAAAAAAAAAAAAAAAAAAAAAAAAAAAAAAAAAAAAAAAAAAAAAAAAAAAAAAAAAAAAAAAAAAAAAAAONn8H2ugTltPTGccAAAAAElFTkSuQmCC;" parent="1" vertex="1">
                    <mxGeometry x="40" y="135" width="175.92" height="70" as="geometry"/>
                </mxCell>
                <mxCell id="3" value="" style="shape=image;verticalLabelPosition=bottom;labelBackgroundColor=default;verticalAlign=top;aspect=fixed;imageAspect=0;image=data:image/svg+xml,PHN2ZyB4bWxucz0iaHR0cDovL3d3dy53My5vcmcvMjAwMC9zdmciIGhlaWdodD0iMTcwIiB3aWR0aD0iODk0IiB2aWV3Qm94PSIwIDAgODk0IDE3MCI+PHBhdGggZD0iTTYyNS41NSAzNS4yMmMtMTMuNzUgMC0yMy41NyA0LjctMjguMzkgMTMuNTlsLTIuNTkgNC43OVYzNy41NGgtMjIuNHY5Ny44NWgyMy41NlY3Ny4xOGMwLTEzLjkxIDcuNTUtMjEuODkgMjAuNzMtMjEuODkgMTIuNTYgMCAxOS43NiA3Ljc2IDE5Ljc2IDIxLjMxdjU4Ljc5aDIzLjU2di02M2MwLTIzLjI2LTEyLjgtMzcuMTctMzQuMjMtMzcuMTd6bS0xMTQuMjIgMGMtMjcuNzkgMC00NS4wNiAxNy4zMy00NS4wNiA0NS4yNXYxMy43NGMwIDI2LjgzIDE3LjQyIDQzLjUxIDQ1LjQ1IDQzLjUxIDE4Ljc0IDAgMzEuODgtNi44OCA0MC4xNS0yMWwtMTQuNjEtOC4zOWMtNi4xMSA4LjE1LTE1Ljg2IDEzLjE5LTI1LjU0IDEzLjE5LTE0LjE5IDAtMjIuNjctOC43Ni0yMi42Ny0yMy40NHYtMy44OWg2NS43OVY3Ny45NWMwLTI2LTE3LjA4LTQyLjczLTQzLjUxLTQyLjczem0yMi4wOCA0My4xNGgtNDQuMzZ2LTIuMzRjMC0xNi4xMiA3LjkxLTI1IDIyLjI4LTI1IDEzLjgzIDAgMjIuMDggOC43NiAyMi4wOCAyMy40NHYzLjl6bTM2MC4yNC01Ni45M1YyLjcxSDgxMi4ydjE4LjcyaDI4LjU2djk1LjI1SDgxMi4ydjE4LjcxaDgxLjQ1di0xOC43MWgtMjguNTZWMjEuNDNoMjguNTZ6TTI3NiAwYy0zNi4zOSAwLTU5IDIyLjY4LTU5IDU5LjE4djE5Ljc0YzAgMzYuNTEgMjIuNiA1OS4xOCA1OSA1OS4xOHM1OS0yMi42NyA1OS01OS4xOFY1OS4xOEMzMzQuOTkgMjIuNjggMzEyLjM4IDAgMjc2IDB6bTM0LjY2IDgwLjI3YzAgMjQuMjQtMTIuNjMgMzguMTUtMzQuNjYgMzguMTUtMjIuMDMgMC0zNC42Ny0xMy45MS0zNC42Ny0zOC4xNVY1Ny44M2MwLTI0LjI0IDEyLjYzLTM4LjE1IDM0LjY2LTM4LjE1IDIyLjAzIDAgMzQuNjYgMTMuOTEgMzQuNjYgMzguMTVsLjAxIDIyLjQ0em05OC4zMS00NWMtMTIuMzYgMC0yMy4wNyA1LjExLTI4LjY0IDEzLjY5bC0yLjU0IDMuOVYzNy41NEgzNTUuNHYxMzEuNTJoMjMuNTV2LTQ3LjYzbDIuNTMgMy43NGM1LjMgNy44NSAxNS42NSAxMi41NSAyNy42OCAxMi41NSAyMC4zMSAwIDQwLjgtMTMuMjggNDAuOC00Mi45M1Y3OC4xM2MwLTIxLjM1LTEyLjYzLTQyLjkxLTQxLTQyLjkxbC4wMS4wNXptMTcuNDQgNTguNGMwIDE1Ljc3LTkuMiAyNS41Ny0yNCAyNS41Ny0xMy44IDAtMjMuNDQtMTAuMzUtMjMuNDQtMjUuMTh2LTE0LjdjMC0xNS4wNiA5LjcyLTI1LjU3IDIzLjYzLTI1LjU3IDE0LjcgMCAyMy44MyA5LjggMjMuODMgMjUuNTdsLS4wMiAxNC4zMXpNNzI0Ljg4IDIuNzZsLTQ3LjU1IDEzMi42M2gyMy45bDkuMS0yOC40NGg1NC42NWwuMDkuMjggOSAyOC4xNkg3OThMNzUwLjQxIDIuNzFsLTI1LjUzLjA1em0tOC42NyA4NS41MmwyMS40NC02Ny4xNSAyMS4yMyA2Ny4wNy00Mi42Ny4wOHpNMTU1LjgwOCA2OS4xODJhNDIuMTU3IDQyLjE1NyAwIDAgMC0zLjYzMi0zNC41OTJjLTkuMjIyLTE2LjA1MS0yNy43NTYtMjQuMzA4LTQ1Ljg1Ni0yMC40MjlhNDIuNzI0IDQyLjcyNCAwIDAgMC03Mi4zODQgMTUuMjk3IDQyLjE1NyA0Mi4xNTcgMCAwIDAtMjguMTYgMjAuNDI5Yy05LjMyMiAxNi4wMjUtNy4yMDYgMzYuMjQgNS4yMzIgNDkuOTg4YTQyLjEyNCA0Mi4xMjQgMCAwIDAgMy42IDM0LjU5MmM5LjIzMiAxNi4wNTcgMjcuNzc4IDI0LjMxMyA0NS44ODkgMjAuNDI5YTQyLjE1NyA0Mi4xNTcgMCAwIDAgMzEuNzYgMTQuMTYzYzE4LjU1Mi4wMTcgMzQuOTktMTEuOTYgNDAuNjU2LTI5LjYyNmE0Mi4xOSA0Mi4xOSAwIDAgMCAyOC4xNi0yMC40MjljOS4yMS0xNS45OTcgNy4wODUtMzYuMTAzLTUuMjY1LTQ5LjgyMnptLTYzLjU1MiA4OC44MTNhMzEuNTI2IDMxLjUyNiAwIDAgMS0yMC4yNjItNy4zMzFsMS0uNTY3IDMzLjY1OS0xOS40MjlhNS41OTkgNS41OTkgMCAwIDAgMi43NjYtNC43OTlWNzguNDEzbDE0LjIzIDguMjMyYS41LjUgMCAwIDEgLjI2Ny4zNjZ2MzkuMzI1Yy0uMDM3IDE3LjQ3LTE0LjE5IDMxLjYyMy0zMS42NiAzMS42NnptLTY4LjA1MS0yOS4wNmEzMS40OTMgMzEuNDkzIDAgMCAxLTMuNzY2LTIxLjIyOGwxIC42IDMzLjY5MiAxOS40MjhhNS40MzIgNS40MzIgMCAwIDAgNS40OTkgMGw0MS4xNTctMjMuNzI3djE2LjQzYS41NjcuNTY3IDAgMCAxLS4yMzMuNDMybC0zNC4wOTIgMTkuNjYzYy0xNS4xNSA4LjcyNy0zNC41MDUgMy41MzgtNDMuMjU3LTExLjU5OHpNMTUuMzQgNTUuNjJhMzEuNTkzIDMxLjU5MyAwIDAgMSAxNi42NjMtMTMuODk3djM5Ljk5YTUuMzk5IDUuMzk5IDAgMCAwIDIuNzMzIDQuNzY2bDQwLjk1NyAyMy42MjgtMTQuMjMgOC4yMzJhLjUzMy41MzMgMCAwIDEtLjUgMGwtMzQuMDI1LTE5LjYzQzExLjgxOCA4OS45NDYgNi42MzMgNzAuNjA1IDE1LjM0IDU1LjQ1M3YuMTY3em0xMTYuOTA3IDI3LjE2bC00MS4wOS0yMy44NjEgMTQuMTk2LTguMTk4YS41MzMuNTMzIDAgMCAxIC41IDBsMzQuMDI2IDE5LjY2MmEzMS42NiAzMS42NiAwIDAgMS00Ljc2NiA1Ny4wODdWODcuNDc4YTUuNTY1IDUuNTY1IDAgMCAwLTIuODY2LTQuNjk5em0xNC4xNjMtMjEuMjk1bC0xLS42LTMzLjYyNS0xOS41OTVhNS40NjUgNS40NjUgMCAwIDAtNS41MzIgMEw2NS4xMjkgNjUuMDE2di0xNi40M2EuNDY3LjQ2NyAwIDAgMSAuMi0uNDMybDM0LjAyNS0xOS42M2EzMS42OTMgMzEuNjkzIDAgMCAxIDQ3LjA1NiAzMi44Mjd2LjEzM3pNNTcuMzY0IDkwLjYxMWwtMTQuMjMtOC4xOThhLjU2Ny41NjcgMCAwIDEtLjI2Ny0uNFY0Mi43ODhBMzEuNjkzIDMxLjY5MyAwIDAgMSA5NC44MjIgMTguNDZsLTEgLjU2Ny0zMy42NTkgMTkuNDI5YTUuNTk5IDUuNTk5IDAgMCAwLTIuNzY2IDQuNzk5bC0uMDMzIDQ3LjM1NnptNy43MzItMTYuNjYzbDE4LjMyOS0xMC41NjQgMTguMzYyIDEwLjU2NHYyMS4xMjhsLTE4LjI5NiAxMC41NjVMNjUuMTMgOTUuMDc2bC0uMDMzLTIxLjEyOHoiLz48L3N2Zz4=;" parent="1" vertex="1">
                    <mxGeometry x="630" y="155" width="157.57" height="30" as="geometry"/>
                </mxCell>
                <mxCell id="4" value="" style="strokeColor=#dddddd;shadow=1;strokeWidth=1;rounded=1;absoluteArcSize=1;arcSize=2;" parent="1" vertex="1">
                    <mxGeometry x="310" y="140" width="220" height="60" as="geometry"/>
                </mxCell>
                <mxCell id="5" value="Cloud Functions" style="editableCssRules=.*;fontColor=#999999;shape=image;verticalLabelPosition=middle;labelBackgroundColor=#ffffff;verticalAlign=middle;labelPosition=right;align=left;spacingLeft=20;part=1;points=[];imageAspect=0;image=data:image/svg+xml,PHN2ZyB4bWxucz0iaHR0cDovL3d3dy53My5vcmcvMjAwMC9zdmciIHhtbG5zOnY9Imh0dHBzOi8vdmVjdGEuaW8vbmFubyIgd2lkdGg9IjIwIiBoZWlnaHQ9IjE5Ljk4OTk5OTc3MTExODE2NCIgdmlld0JveD0iMCAwIDIwIDE5Ljk4OTk5OTc3MTExODE2NCI+JiN4YTsJPHN0eWxlIHR5cGU9InRleHQvY3NzIj4mI3hhOwkuc3Qwe2ZpbGw6IzQyODVmNDt9JiN4YTsJLnN0MXtmaWxsOiM2NjlkZjY7fSYjeGE7CS5zdDJ7ZmlsbDojYWVjYmZhO30mI3hhOwk8L3N0eWxlPiYjeGE7CTxwYXRoIGNsYXNzPSJzdDEiIGQ9Ik0zIDMuOTlMMCA2LjQydjcuMTNsMyAyLjQ0eiIvPiYjeGE7CTxwYXRoIGNsYXNzPSJzdDAiIGQ9Ik0zIDMuOTlsLTMgNCAzLTJ6bS0zIDhsMyA0di0yeiIvPiYjeGE7CTxwYXRoIGNsYXNzPSJzdDIiIGQ9Ik0wIDE1Ljk5bDQgNCAyLTItNi02em0uMDEtOEw1Ljk5IDJsLTItMkwwIDMuOTl6Ii8+JiN4YTsJPHBhdGggY2xhc3M9InN0MSIgZD0iTTE3IDE2bDMtMi40MlY2LjQ0TDE3IDR6Ii8+JiN4YTsJPHBhdGggY2xhc3M9InN0MCIgZD0iTTE3IDE2bDMtNC0zIDJ6bTMtOGwtMy00djJ6Ii8+JiN4YTsJPGcgY2xhc3M9InN0MiI+JiN4YTsJCTxwYXRoIGQ9Ik0yMCA0bC00LTQtMiAyIDYgNnptLS4wMSA4bC01Ljk4IDUuOTkgMiAyTDIwIDE2eiIvPiYjeGE7CQk8Y2lyY2xlIGN4PSI2IiBjeT0iOS45OSIgcj0iMSIvPiYjeGE7CQk8Y2lyY2xlIGN4PSIxMCIgY3k9IjkuOTkiIHI9IjEiLz4mI3hhOwkJPGNpcmNsZSBjeD0iMTMuOTkiIGN5PSI5Ljk5IiByPSIxIi8+JiN4YTsJPC9nPiYjeGE7PC9zdmc+;fontSize=20;" parent="4" vertex="1">
                    <mxGeometry width="30" height="24" relative="1" as="geometry">
                        <mxPoint x="15" y="18" as="offset"/>
                    </mxGeometry>
                </mxCell>
                <mxCell id="9" value="" style="edgeStyle=orthogonalEdgeStyle;fontSize=12;html=1;endArrow=blockThin;endFill=1;rounded=0;strokeWidth=2;endSize=4;startSize=4;dashed=0;strokeColor=#4284F3;exitX=1.009;exitY=0.354;exitDx=0;exitDy=0;entryX=-0.001;entryY=0.341;entryDx=0;entryDy=0;entryPerimeter=0;exitPerimeter=0;" parent="1" source="2" target="4" edge="1">
                    <mxGeometry width="100" relative="1" as="geometry">
                        <mxPoint x="220" y="155" as="sourcePoint"/>
                        <mxPoint x="320" y="155" as="targetPoint"/>
                    </mxGeometry>
                </mxCell>
                <mxCell id="10" value="" style="edgeStyle=orthogonalEdgeStyle;fontSize=12;html=1;endArrow=blockThin;endFill=1;rounded=0;strokeWidth=2;endSize=4;startSize=4;dashed=0;strokeColor=#4284F3;exitX=-0.004;exitY=0.666;exitDx=0;exitDy=0;entryX=1;entryY=0.649;entryDx=0;entryDy=0;exitPerimeter=0;entryPerimeter=0;" parent="1" source="4" target="2" edge="1">
                    <mxGeometry width="100" relative="1" as="geometry">
                        <mxPoint x="309.99999999999994" y="185.26" as="sourcePoint"/>
                        <mxPoint x="404.3" y="185" as="targetPoint"/>
                    </mxGeometry>
                </mxCell>
                <mxCell id="13" value="" style="edgeStyle=orthogonalEdgeStyle;fontSize=12;html=1;endArrow=blockThin;endFill=1;rounded=0;strokeWidth=2;endSize=4;startSize=4;dashed=0;strokeColor=#4284F3;exitX=1.004;exitY=0.337;exitDx=0;exitDy=0;entryX=-0.006;entryY=0.159;entryDx=0;entryDy=0;exitPerimeter=0;entryPerimeter=0;" parent="1" source="4" target="3" edge="1">
                    <mxGeometry width="100" relative="1" as="geometry">
                        <mxPoint x="535.7" y="147.63" as="sourcePoint"/>
                        <mxPoint x="630" y="147.37" as="targetPoint"/>
                    </mxGeometry>
                </mxCell>
                <mxCell id="14" value="" style="edgeStyle=orthogonalEdgeStyle;fontSize=12;html=1;endArrow=blockThin;endFill=1;rounded=0;strokeWidth=2;endSize=4;startSize=4;dashed=0;strokeColor=#4284F3;exitX=0;exitY=0.859;exitDx=0;exitDy=0;entryX=1.006;entryY=0.689;entryDx=0;entryDy=0;entryPerimeter=0;exitPerimeter=0;" parent="1" source="3" target="4" edge="1">
                    <mxGeometry width="100" relative="1" as="geometry">
                        <mxPoint x="629.56" y="182.95" as="sourcePoint"/>
                        <mxPoint x="535.7" y="182.63" as="targetPoint"/>
                    </mxGeometry>
                </mxCell>
                <mxCell id="15" value="" style="edgeStyle=orthogonalEdgeStyle;fontSize=12;html=1;endArrow=blockThin;endFill=1;rounded=0;strokeWidth=2;endSize=4;startSize=4;dashed=0;strokeColor=#9E9E9E;entryX=0.5;entryY=1;entryDx=0;entryDy=0;exitX=0.5;exitY=0;exitDx=0;exitDy=0;" parent="1" source="4" edge="1">
                    <mxGeometry width="100" relative="1" as="geometry">
                        <mxPoint x="360" y="110" as="sourcePoint"/>
                        <mxPoint x="420" y="91" as="targetPoint"/>
                    </mxGeometry>
                </mxCell>
                <mxCell id="16" value="&lt;font style=&quot;font-size: 12px;&quot;&gt;app にメンション&lt;/font&gt;" style="text;strokeColor=none;align=center;fillColor=none;html=1;verticalAlign=middle;whiteSpace=wrap;rounded=0;fontSize=12;spacing=0;" parent="1" vertex="1">
                    <mxGeometry x="210" y="140" width="100" height="17" as="geometry"/>
                </mxCell>
                <mxCell id="17" value="&lt;font style=&quot;font-size: 12px;&quot;&gt;回答を送信&lt;/font&gt;" style="text;strokeColor=none;align=center;fillColor=none;html=1;verticalAlign=middle;whiteSpace=wrap;rounded=0;fontSize=12;spacing=0;" parent="1" vertex="1">
                    <mxGeometry x="210" y="190" width="100" height="17" as="geometry"/>
                </mxCell>
                <mxCell id="18" value="&lt;font style=&quot;font-size: 12px;&quot;&gt;質問を送信&lt;/font&gt;" style="text;strokeColor=none;align=center;fillColor=none;html=1;verticalAlign=middle;whiteSpace=wrap;rounded=0;fontSize=12;spacing=0;" parent="1" vertex="1">
                    <mxGeometry x="530" y="140" width="100" height="17" as="geometry"/>
                </mxCell>
                <mxCell id="19" value="&lt;font style=&quot;font-size: 12px;&quot;&gt;回答を受信&lt;/font&gt;" style="text;strokeColor=none;align=center;fillColor=none;html=1;verticalAlign=middle;whiteSpace=wrap;rounded=0;fontSize=12;spacing=0;" parent="1" vertex="1">
                    <mxGeometry x="530" y="190" width="100" height="17" as="geometry"/>
                </mxCell>
                <mxCell id="20" value="1" style="shape=ellipse;perimeter=ellipsePerimeter;strokeColor=#BDBDBD;strokeWidth=2;shadow=0;gradientColor=none;fontColor=#757575;align=center;html=1;fontStyle=1;spacingTop=-1;fontSize=12;" parent="1" vertex="1">
                    <mxGeometry x="195.92000000000002" y="120" width="20" height="20" as="geometry"/>
                </mxCell>
                <mxCell id="21" value="2" style="shape=ellipse;perimeter=ellipsePerimeter;strokeColor=#BDBDBD;strokeWidth=2;shadow=0;gradientColor=none;fontColor=#757575;align=center;html=1;fontStyle=1;spacingTop=-1;fontSize=12;" parent="1" vertex="1">
                    <mxGeometry x="530" y="120" width="20" height="20" as="geometry"/>
                </mxCell>
                <mxCell id="22" value="3" style="shape=ellipse;perimeter=ellipsePerimeter;strokeColor=#BDBDBD;strokeWidth=2;shadow=0;gradientColor=none;fontColor=#757575;align=center;html=1;fontStyle=1;spacingTop=-1;fontSize=12;" parent="1" vertex="1">
                    <mxGeometry x="530" y="207" width="20" height="20" as="geometry"/>
                </mxCell>
                <mxCell id="23" value="4" style="shape=ellipse;perimeter=ellipsePerimeter;strokeColor=#BDBDBD;strokeWidth=2;shadow=0;gradientColor=none;fontColor=#757575;align=center;html=1;fontStyle=1;spacingTop=-1;fontSize=12;" parent="1" vertex="1">
                    <mxGeometry x="200" y="205" width="20" height="20" as="geometry"/>
                </mxCell>
                <mxCell id="24" value="" style="strokeColor=#666666;shadow=1;strokeWidth=1;rounded=1;absoluteArcSize=1;arcSize=2;fillColor=#f5f5f5;fontColor=#333333;" vertex="1" parent="1">
                    <mxGeometry x="520" y="31" width="160" height="60" as="geometry"/>
                </mxCell>
                <mxCell id="25" value="関数エラー管理&#10;Error Reporting" style="editableCssRules=.*;fontColor=#999999;shape=image;verticalLabelPosition=middle;labelBackgroundColor=none;verticalAlign=middle;labelPosition=right;align=left;spacingLeft=12;part=1;points=[];imageAspect=0;image=data:image/svg+xml,PHN2ZyB4bWxucz0iaHR0cDovL3d3dy53My5vcmcvMjAwMC9zdmciIHhtbG5zOnY9Imh0dHBzOi8vdmVjdGEuaW8vbmFubyIgd2lkdGg9IjIwIiBoZWlnaHQ9IjIwIiB2aWV3Qm94PSIwIDAgMjAgMjAiPiYjeGE7CTxzdHlsZSB0eXBlPSJ0ZXh0L2NzcyI+JiN4YTsJLnN0MHtmaWxsOiM0Mjg1ZjQ7fSYjeGE7CS5zdDF7ZmlsbDojNjY5ZGY2O30mI3hhOwk8L3N0eWxlPiYjeGE7CTxwYXRoIGNsYXNzPSJzdDEiIGQ9Ik0wIDE1bDUgNWg1bC0yLjUtMi44Nkg2LjI1bC0zLjM5LTMuMzl2LTcuNWwzLjM5LTMuMzlINy41TDEwIDBINUwwIDV6TTEzLjc1IDIuODZsMy4zOSAzLjM5djcuNWwtMy4zOSAzLjM5SDEwTDEyLjUgMjBIMTVsNS01VjVsLTUtNWgtMi41TDEwIDIuODZ6IiBmaWxsLXJ1bGU9ImV2ZW5vZGQiLz4mI3hhOwk8cGF0aCBjbGFzcz0ic3QwIiBkPSJNMTAgMTBMNy41IDcuNSAxMCA1SDcuNUw1IDcuNXY1TDcuNSAxNUgxMGwtMi41LTIuNXptMi41IDBMMTAgMTIuNWwyLjUgMi41IDIuNS0yLjV2LTVMMTIuNSA1IDEwIDcuNXoiIGZpbGwtcnVsZT0iZXZlbm9kZCIvPiYjeGE7PC9zdmc+;fillColor=#DEDEDE;" vertex="1" parent="24">
                    <mxGeometry width="30" height="30" relative="1" as="geometry">
                        <mxPoint x="15" y="15" as="offset"/>
                    </mxGeometry>
                </mxCell>
                <mxCell id="26" value="" style="strokeColor=#666666;shadow=1;strokeWidth=1;rounded=1;absoluteArcSize=1;arcSize=2;fillColor=#f5f5f5;fontColor=#585858;" vertex="1" parent="1">
                    <mxGeometry x="349" y="31" width="141" height="60" as="geometry"/>
                </mxCell>
                <mxCell id="27" value="関数ログ収集&#10;Logging" style="editableCssRules=.*;fontColor=#999999;shape=image;verticalLabelPosition=middle;labelBackgroundColor=none;verticalAlign=middle;labelPosition=right;align=left;spacingLeft=12;part=1;points=[];imageAspect=0;image=data:image/svg+xml,PHN2ZyB4bWxucz0iaHR0cDovL3d3dy53My5vcmcvMjAwMC9zdmciIHhtbG5zOnY9Imh0dHBzOi8vdmVjdGEuaW8vbmFubyIgd2lkdGg9IjIwIiBoZWlnaHQ9IjE5IiB2aWV3Qm94PSIwIDAgMjAgMTkiPiYjeGE7CTxzdHlsZSB0eXBlPSJ0ZXh0L2NzcyI+JiN4YTsJLnN0MHtmaWxsOiM0Mjg1ZjQ7fSYjeGE7CS5zdDF7ZmlsbDojNjY5ZGY2O30mI3hhOwkuc3Qye2ZpbGw6I2FlY2JmYTt9JiN4YTsJPC9zdHlsZT4mI3hhOwk8ZyBjbGFzcz0ic3QwIj4mI3hhOwkJPHBhdGggZD0iTTQgOWg0djJINHptLTIgN2g2djJIMnoiLz4mI3hhOwkJPHBhdGggZD0iTTQgNEgydjEyaDJ6Ii8+JiN4YTsJPC9nPiYjeGE7CTxwYXRoIGNsYXNzPSJzdDEiIGQ9Ik0yMCAxSDd2NGgxM3ptMCA3SDd2NGgxM3ptMCA3SDd2NGgxM3oiLz4mI3hhOwk8cGF0aCBjbGFzcz0ic3QyIiBkPSJNNiAwSDB2Nmg2eiIvPiYjeGE7PC9zdmc+;fillColor=#DEDEDE;" vertex="1" parent="26">
                    <mxGeometry width="30" height="28" relative="1" as="geometry">
                        <mxPoint x="15" y="16" as="offset"/>
                    </mxGeometry>
                </mxCell>
                <mxCell id="28" value="" style="group" vertex="1" connectable="0" parent="1">
                    <mxGeometry x="155.9949999999999" y="31" width="157.69000000000005" height="60" as="geometry"/>
                </mxCell>
                <mxCell id="29" value="" style="strokeColor=#666666;shadow=1;strokeWidth=1;rounded=1;absoluteArcSize=1;arcSize=2;fillColor=#f5f5f5;fontColor=#585858;" vertex="1" parent="28">
                    <mxGeometry width="157.69" height="60" as="geometry"/>
                </mxCell>
                <mxCell id="30" value="キー情報の管理&#10;Secret Manager" style="shape=image;verticalLabelPosition=middle;labelBackgroundColor=none;verticalAlign=middle;aspect=fixed;imageAspect=0;image=data:image/png,iVBORw0KGgoAAAANSUhEUgAAAgAAAAIACAMAAADDpiTIAAACrFBMVEUAAABChfRChfRChfVBhvVAifZChvRDhfRChfVChfRChfRJgO1Eg/NChfRChPRAhvJChPZChvRChvREiO5AgO9BhfVDh/VBhfVGg/dChvQ8h/BChfRChfRChfVBhPNAgP85jv9DhPNDhfNChfRChfVDhfM9hvNFg/FChfNChfVDhvWAgP9ChfRChPRBhfQzmf9ChfVChPRVqv9ChvRChfRDhfRBhfQ9hfVBhfRChfRChfRDhfNChPNChfNChfRDhfRDhfRBhfRChfRChfRChfRDhfNChfRChfVAhfRBhPRBhfRBhPRChPRJkv9BhvNDhfVChvNChPRCg/BDhvVChfRDhfRChfRChfRBhfVDhfNChPNGf/NBh/VBhvRChfRFifVChfRDhPRNgP9ChfRDhfRChfRCg/NChfRDh/RAgP9AivRBhPNChfRChfNChfRAhPVBhfVChfRChPZChfVBhvZDhvI7ietDhvRChfRChPdChvVBhvRChfVDhfRChfRChPRChfRBhfRAgOpChfRGi/9ChfRAh/FChPRChfNChfVChvRChvRDhvNBhvRBhPNChfNChfREiPdChvRChfRDhfRBhfRAh/dChfRChfRDhvZChfRDhvJChPQA//9BhvNChPNEgvRBg/JChvRChfRDhfRChPJDhfRChfRChfRChfVChPRChfRDhfNChfRChPRBhfRChfVVgP9BhvRChfRDhvVBgvNChfRChPVBiPRBhvVChfRChPRChvVAgPJBhPNChfREg/RChfREh/VDhfVChfRChfNChPVBhPRBhPVGhPZBhPNChfVBhfNBhvJChfRDhfNDhvVChfNChfVChfREg/NDhfRChvVChvRAhPZDhvVBhfRDhvJDhvRDhfRChPNChfRChfNChfRDhfRBhPTU7fogAAAA5HRSTlMA//TFShym5mTt8g5A5VkoNr1hDxBiNX0hjxGQ961TCAlXsPiWaxUlgNtjAvCeQwVJogPp+rRaGXHKukE+l+tFoUe8/PuZ2n8wieKc5wdSrGlwI37XncDJS8dsFjON/Rq2WwrYb/FCo0gEGG7Ixo40ZmBRkjcTDV/+H6qo3Lj5tfZ1DPULzCSzrnvSXSq7gW3WHnTgz3kgd8055CbQAT+DLSfU4Yo6LqfqMoffWO6LXvMGv6VnK9loL07CzpMUhalEiDGV74RNt08dasSYO9OCTK+r0SkXfHg4et49kctVspu+XKCe4E+pAAAJjElEQVR4AezbxQGEQBAAwZlzQfLPlh/6xakKAG2cDQAAAAAAAAAAAAAAAAAAAAAAAAAAAAAAAAAAAAAAAAAAAAAAAAAAAAAAAAAAAAAAAAAAAAAAAAAAAAAAAAAAAIBDyeXc7o+4nufrnQs4RABTn+vt/292BPD7Xy2AVwqgr7haAKUABir3VAIQgAAEIAABCEAAAhCAAAQgAAEIQAACEIAABCAAAQhAAAIQgAAEIAABCEAAAhCAAAQgAAEIQAACEIAAjkQAAhCAgSECMDRMAAaHCsDw8DMEEKxCADslAASAABAAAkAACAABIAAEgAAQAAJAAAgAASAABIAAEAACQAAIAAEgAASAABAAAjgSASAABIAAEAACQAAIAAEgAASAABAAAkAACAABIAAEgADqnKhjIWvOK4qc+AtAAAIQgAAEIAABCEAAAhCAAAQgAAEIQAACEIAABCAAAQhAAAIQgAAEIAABCEAAAhBAw4498EYXRVEY3qu2bdu2bdv4bNuo+YNrXwxPzs3OPGG5kuy3HTgCcATANwD+ATgCCAgMCrbXUUJCAwOMskVh4RH2CyAsMoprANFATGxcvO1HSUhMSgaijbJFKYBzapo9AkjPyASymAaQ7YtTObl52bYcJb+g0AmnfLONsUVFxQBQUlqWYFsA5RWVOFXFNIBqXHKPDLP2KDW1dbhUbYwtqscFp4bGImsD8A5qasa5ljSeAbTihrb2dMuP0tHZhRtajbFF3bjWEx1gRQC9ff0xuDbAMoD8OtxWOVhuyVGGhkdwW12+EbYo3xO43duQRQFkV4/m4JYxlgEUQKG5KcjbvKOUD45DqcAIWzQBhcmpaXMDmJn1xV1z8xwDaICamP6+XlNHCckKnIOaBiNsUSFUtCwsLpkOYGh4GWpWGAYQvwoNObn3sjWOcvkyTMNqvPQtnTGn+w8e6gXw6PETaHjKMIA+6PB99jzhBRRe9roUOkFHn/wtegVtxa/fEDVC4S29e1/VDE0fPvIL4BP0Net+UsMn+Vv0Gbq+fP0GhbrvP6DrJ7sAfv2GAL9/yd6iP04Q4C+7ABYhxKLsLUqEEP+4BfAfQvyXvUVrEGKdWQBR3yDEtyi5W+QdAyE2mAWQBUGy5G7RJgTZ4hXANgTZlrtFpRBkh1cAu84QwnlX7lbRHgRx4/Y+wP7BOOxs/GBf/tZM5+ExO/fYHkkTRgH4nPUGaztrT8y1bdu2bdu2bdu2zR/yYq4J50l3BR/qmsr9NTjBma7pLjDVrVtfwBNXBG3YuImpZtPGDbpkbS68haloVdutnrsotM3ibUwF2xa3ATTK2r6jdBBTxbSduzx9VfDutnuYInva7oaLRlmBVdtnZQrt3TfSjGXhy1b0ZTL1XbEMAi2yHBlqeTHZfAvvN2lfwIGd05JzfTwAgUZZxcccnMtkOFTdZ7txG0MOHzlKqjt65DAE2mX1ObaoCJPkePuagYbuDMpxYi+V7D2RAzIdsyacnDmDik4FdDpt9Naw/QW30MaWgvsh0zerUN7l9Whr7tQWxdP2BhYvQkuHHJBpntV1Ma3NytYHQFoBcIaWCkKmfZbjFC2dhcy0AkyoQEtTIdM9C9hESyfTCuCUiTbOQaZ5FibS2rTcaQVQmr4v0ggSzbOw9RRtTEkrAHB+Lm1dmACB3llovo62LqYVoM8eKjgIgdZZwFjaK3LJ+AI0pZKLEOichcuTqKDvHMMLEEo10tCscxYyZqWSgWYXoJwXFTXwhkDXLAReoaJcJheg+VUqmwqBplnACqqau8zgAlyjMmFo1jcLPnWpbE8JYwswhqK1a9WGZm2zcH0L1bGpqQWYfJySACBAaWjWNQvbF1KSueGNGZSEmlkAR2dKGkwAJjSg5CYE2mUBrSnpcQuYTYnXViMLsI+SGd0AoNsMSlpBoFsWupWi5DaA7ZGUrGtuYAH8e1ASDqdwSorcgUCrrEQvKR0dADAkiJK75hWg5yFKZm6H0/aZlFTwhkybLGAgJV5t4JRhEiXFTCtApTOU+JaFS1lf9aFZoyxgIkVL4VKQknsFDCtAeUp6DECMAT3Uh2Z9srD7FCUD7SYJO542qgBRdSm5jzjuU1LqMAQaZFn+e6dNQIzs6SgZYVIBuvpSkn4w4hicXmFo1iBL4XljcA7EkYWSSQ/MKcD2h5Qcn6z08GYKRBpkAY8mUbJR5RS7rI+NKcBGqr0TLkbRE0g0yMLjrJTUqYR48qyl5OlgQwqwOZiSZ3DzTGFo1iDLZg74UBgSeF6XkiNmFKCQ3P8XJeCmxAvVoVmDLOAlJZNewU1DSnrUNqIArymZdR6C87MoeQMXLbJs5oDHql8rgnoaUIChFI2CaBRFZeCiQZbNHPDb5hA8Pk7JmUoeX4A+zZL2OntDSbM+ALTKwvYQSua+g6gYReU9vgB43IHujuaBDHmO0l2Hx3DRJ+t9O4urjaA+JdMDPb4ACPxQjwnU24xEbXb/7A+BcNEpa157uiuKxPRZRTfBHz1tCJB9Osr4PsPCZ8Z39BMkGmT5VWYCTQohUQeKMIEv40x5FOydSXxQIqtUh3Fl8oZMg6wCwxhP3a+wsJLxHfQ2aDZwohdjBIXBUlgQY3hNhEyPrMFHeiid9ysca58ur1kLQhZE0GVSBliKu4giYgFk2mTdyswYTwMhktYhrMsOswoAR+MedOoOW93p1KOxAwK9ssrOpMu9ybBRtQddvjU3cFl4VV+S/H4atk5/J0nfqhDolxU+g04/YOs2nWq8MnNjyPWfpNcCKFjgRf68DoGOWYcvkOQv2HN0JMnfPY3dHFqmyB8o+VOkDASaZs35S7abBwVt+rPe4kowtgDImIJP1Dmr96FGim1b+y/7dowFEBBDUTQpZhyFTdqbferQ40DurVO+Is1fIgoEUM58+aEAEAACQAAI4L0EgAAQAAJAAAgAASAABIAAEAACQAAIAAEgAASAABAAAkAACAABIAAEgAAQAAJAAAgAASAABIAAEEAFAkAACAABIAAEgAAQAALguQDuM/QW9bQ+5Bk/CGA31iugjZkC2PSopueBAKaoZqodgB8yBSAAAQhAAAIQgAAEIAABCEAAAhCAAAQgAAEIQAACEIAABCAAAQhAAAIQgAAEIAABCEAAAhCAAAQgAAEIQAAC2BmGGIaYhpmGGYcah5qHm4cDAAAAAAAAAAAAAAAAAAAAAAAAAAAAAAAAAAAAAAAAAAAAAAAAAAAAAAAAAAAAAAAAAAAAAAAAAAAAAAAAAAAAwEesG9lgFAAA9mxN53Iy2VsAAAAASUVORK5CYII=;fontColor=#999999;align=left;labelPosition=right;spacing=12;" vertex="1" parent="28">
                    <mxGeometry x="7.690000000000055" y="10" width="40" height="40" as="geometry"/>
                </mxCell>
                <mxCell id="31" value="" style="edgeStyle=orthogonalEdgeStyle;fontSize=12;html=1;endArrow=blockThin;endFill=1;rounded=0;strokeWidth=2;endSize=4;startSize=4;dashed=0;strokeColor=#9E9E9E;exitX=0.5;exitY=1;exitDx=0;exitDy=0;entryX=0.25;entryY=0;entryDx=0;entryDy=0;" edge="1" parent="1" source="29" target="4">
                    <mxGeometry width="100" relative="1" as="geometry">
                        <mxPoint x="360" y="140" as="sourcePoint"/>
                        <mxPoint x="460" y="140" as="targetPoint"/>
                    </mxGeometry>
                </mxCell>
                <mxCell id="34" value="" style="edgeStyle=orthogonalEdgeStyle;fontSize=12;html=1;endArrow=blockThin;endFill=1;rounded=0;strokeWidth=2;endSize=4;startSize=4;dashed=0;strokeColor=#9E9E9E;entryX=0.5;entryY=1;entryDx=0;entryDy=0;exitX=0.75;exitY=0;exitDx=0;exitDy=0;" edge="1" parent="1" source="4" target="24">
                    <mxGeometry width="100" relative="1" as="geometry">
                        <mxPoint x="490" y="140" as="sourcePoint"/>
                        <mxPoint x="510" y="140" as="targetPoint"/>
                    </mxGeometry>
                </mxCell>
            </root>
        </mxGraphModel>
    </diagram>
</mxfile>
